<svg width="403" height="641" viewBox="0 0 403 641" fill="none" xmlns="http://www.w3.org/2000/svg">
<g style="mix-blend-mode:luminosity" opacity="0.7" clip-path="url(#clip0_1_32)">
<path d="M213.351 372.068C208.69 382.223 200.541 389.35 192.393 396.625C219.053 426.006 210.277 411.834 244.838 422.648C253.664 425.857 263.664 429.495 265.796 437.511C268.094 435.272 270.226 432.853 272.176 430.318C275.945 425.446 279.135 420.146 282.143 414.764C283.664 412.064 285.135 409.332 286.622 406.616C287.366 405.267 288.226 403.933 288.87 402.551C289.283 401.645 290.11 400.098 289.663 399.16C289.465 398.749 289.085 398.452 288.688 398.189C286.209 396.609 283.283 395.786 280.755 394.173C278.242 392.576 275.879 390.766 273.598 388.873C267.763 384.083 262.342 378.8 257.218 373.269C250.788 366.323 244.54 358.999 239.648 350.851C238.789 349.419 238.061 347.905 237.466 346.341C236.97 345.025 236.392 343.296 237.02 341.947C215.715 356.102 222.293 372.956 209.963 389.943C209.037 391.21 207.665 392.165 206.095 392.362C198.789 393.317 215.285 376.594 213.368 372.051L213.351 372.068Z" fill="url(#paint0_radial_1_32)"/>
<path d="M73.2877 453.888C80.081 441.757 92.7584 434.532 102.923 425.479C124.626 392.543 127.072 411.34 154.741 423.24C139.567 408.443 142.179 382.635 122.46 371.525C108.147 362.159 118.179 343.362 110.808 330.326C93.3369 345.568 74.3456 365.27 66.5937 387.622C74.2133 383.046 80.7917 370.126 84.6429 368.776C99.6839 363.92 63.0896 399.555 55.5526 398.255C32.7596 402.88 38.7099 431.997 14.0493 437.198C12.6939 452.769 10.8758 462.513 13.8509 498.609C31.1398 480.964 63.9326 475.713 73.2712 453.905L73.2877 453.888Z" fill="url(#paint1_radial_1_32)"/>
<path d="M334.043 441.083C333.514 438.959 332.39 437.215 330.869 435.815C329.349 434.416 327.597 433.56 325.679 433.017C312.721 429.314 315.845 418.154 317.448 407.39C317.911 404.246 317.762 401.036 317.068 397.926C314.671 387.227 314.903 384.034 319.977 372.051C294.986 394.469 282.986 426.763 261.631 451.946C260.689 453.065 259.846 454.267 259.053 455.501C243.631 479.647 206.673 491.992 251.433 495.234C286.506 498.246 329.299 510.525 333.183 533.832C335.117 545.436 325.365 556.579 312.093 570.866C291.399 593.136 268.127 603.933 253.829 609.184C236.458 616.212 215.764 623.191 192.062 628.606C174.079 632.721 157.352 635.256 142.344 636.77C218.144 651.929 311.432 626.071 361.431 564.101C378.488 542.934 392.868 513.998 399.992 486.445C395.446 484.091 390.405 482.561 385.678 480.487C380.587 478.248 376.191 474.561 373.298 469.821C363.1 453.114 338.175 460.143 334.043 441.066V441.083Z" fill="url(#paint2_radial_1_32)"/>
<path d="M210.409 560.217C235.351 547.938 241.417 544.053 240.788 541.091C239.929 537.042 227.45 539.132 210.64 533.091C201.55 529.816 194.277 525.289 188.773 521.043C183.385 516.895 179.947 510.624 179.699 503.843C179.699 503.744 179.699 503.645 179.699 503.546C179.451 495.481 183.881 489.474 186.707 485.704C188.806 482.906 190.889 480.915 195.054 476.915C196.855 475.187 198.74 473.524 202.459 470.265C206.376 466.825 210.144 463.632 213.847 460.554C215.731 458.99 215.351 459.336 219.483 455.929C228.921 448.177 230.855 446.448 233.136 443.551C234.26 442.119 236.177 439.486 237.235 435.7C238.26 431.997 237.615 430.302 237.433 429.874C236.392 427.388 233.565 425.462 232.326 426.088C231.863 426.318 231.582 426.927 231.599 427.454C231.648 428.754 233.516 429.248 234.359 430.236C236.64 432.902 232.078 440.21 231.797 440.638C227.863 446.827 223.814 449.395 215.648 455.929C210.789 459.813 205.731 464.109 199.269 469.574C195.12 473.096 190.674 476.898 184.046 479.631C181.385 480.733 178.839 481.425 175.798 481.425C175.054 481.425 171.17 481.359 166.972 479.104C163.997 477.507 162.096 475.466 158.542 470.726C150.228 459.599 148.757 454.81 145.485 454.958C143.303 455.057 140.245 457.641 141.204 458.842C142.08 459.945 142.972 461.031 143.815 462.118C146.08 465.015 141.865 468.586 139.402 465.854C128.807 454.102 123.386 433.692 121.369 417.809C121.072 415.504 118.279 414.484 116.56 416.064C111.155 421.035 107.32 427.652 107.568 435.223C106.609 438.679 104.246 437.988 103.089 436.013C102.213 434.515 100.163 434.153 98.8079 435.256C91.37 441.264 82.8908 446.942 78.2463 455.122C77.0893 457.18 78.7752 459.649 81.1223 459.402C84.147 459.073 86.4941 460.011 83.4363 463.221C83.1388 463.533 82.7751 463.764 82.3785 463.912C58.2467 472.899 37.1232 488.519 16.0492 502.756C15.1071 503.398 14.6278 504.534 14.8426 505.653C18.4789 524.071 21.7351 557.402 66.5275 601.069C67.1556 601.678 68.0316 601.974 68.9077 601.859C83.552 599.933 99.2376 597.3 115.783 593.712C135.65 589.399 153.848 584.363 170.261 579.079C178.096 576.561 188.756 570.849 210.376 560.2L210.409 560.217ZM179.5 552.201C179.17 552.629 177.815 553.287 175.137 554.555C172.906 555.608 171.038 556.414 169.765 556.958C169.699 556.991 169.649 557.007 169.583 557.04C166.327 558.785 164.757 558.604 163.931 558.027C161.17 556.118 164.509 548.53 161.732 546.884C160.625 546.226 158.79 546.654 157.765 547.609C154.922 550.226 159.137 555.74 156.823 560.414C154.84 564.43 148.526 566.916 145.848 565.303C139.072 561.188 153.947 527.758 152.641 527.297C152.509 527.248 152.278 527.594 152.195 527.709C146.575 536.054 142.179 554.505 141.981 555.312C141.815 555.97 141.452 559.459 141.369 560.25C141.369 560.365 141.352 560.463 141.369 560.579C141.402 563.492 142.047 564.266 141.584 565.089C140.229 567.426 132.576 565.368 126.956 563.986C121.716 562.702 114.477 561.072 105.601 559.575C105.518 559.575 105.419 559.542 105.337 559.509C102.114 558.604 97.1385 557.287 90.8576 556.036C85.8825 555.048 84.0148 554.867 83.1222 553.32C81.833 551.114 83.6016 548.004 90.5436 537.7C98.907 525.306 101.469 522.195 103.733 520.878C104.279 520.566 104.973 520.286 104.973 520.286C104.973 520.286 109.171 518.393 114.345 517.537C125.353 515.71 138.824 518.031 138.824 518.031C144.906 519.068 148.989 519.776 154.228 522.129C156.245 523.034 163.815 526.59 170.955 534.556C175.484 539.609 182.029 548.859 179.533 552.201H179.5Z" fill="url(#paint3_radial_1_32)"/>
<path d="M14.76 432.079C40.1645 419.718 26.4292 401.613 57.0402 391.391C63.3045 389.449 62.8913 381.038 65.4532 376.051C69.8664 365.797 78.4116 358.077 85.7173 349.93C93.965 341.749 100.196 325.207 113.32 325.52C144.46 341.009 161.517 372.891 188.69 393.58C209.401 377.779 215.896 350.358 237.565 335.198C238.276 333.816 240.326 333.733 241.598 334.408C264.788 347.675 301.184 383.524 308.903 376.512C312.225 373.483 318.142 365.78 319.117 364.809C319.547 364.381 320.043 364.101 320.043 364.101C320.043 364.101 320.407 363.904 320.82 363.772C325.812 362.258 356.175 398.238 356.175 398.238C365.249 409.003 379.695 422.615 402.967 434.466C400.752 425.676 398.521 416.903 396.306 408.114C384.802 375.096 372.29 355.822 378.191 326.722C355.447 337.815 361.017 372.101 334.687 366.159C309.399 339.922 381.48 293.309 320.456 233.396C355.596 295.251 249.83 324.352 262.986 252.851C265.515 238.235 273.482 232.293 280.854 220.903C317.564 169.385 280.474 91.5315 237.615 77.5902C265.912 160.777 173.153 158.341 169.848 231.75C151.782 213.678 154.46 163.838 175.715 147.593C101.7 182.141 118.907 238.811 113.948 289.128C115.022 290.675 156.641 302.115 152.922 306.197C153.253 311.76 113.535 293.062 111.915 293.605C88.6924 332.186 40.6273 293.424 64.445 255.913C25.3218 284.766 32.2142 335.297 41.8504 380.051C35.4869 368.43 12.1155 350.094 0.0165405 346.737C12.2973 364.694 21.5037 405.727 14.7766 432.096L14.76 432.079ZM168.129 343.543C166.955 344.449 158.542 356.76 156.741 356.102C148.741 354.851 163.65 342.852 164.311 340.449C166.278 337.964 170.195 341.091 168.129 343.527V343.543ZM202.194 373.467C193.566 373.928 189.203 345.123 188.112 345.732C192.756 332.845 196.574 362.439 202.839 370.06C203.599 371.179 203.302 372.71 202.178 373.467H202.194ZM221.301 349.699C219.219 354.11 205.153 341.371 202.855 341.025C201.715 340.301 201.368 338.787 202.079 337.651C202.806 336.515 204.326 336.169 205.467 336.877C206.822 338.836 224.359 345.897 221.301 349.699ZM275.713 336.713C276.953 337.272 277.515 338.721 276.953 339.939C276.391 341.19 274.92 341.716 273.713 341.173C245.813 328.763 215.384 328.894 215.037 328.878C202.872 319.463 247.4 324.352 275.713 336.696V336.713ZM263.631 291.63C266.623 290.626 268.209 295.333 265.152 296.304C263.548 295.564 209.731 317.208 210.459 311.381C206.26 307.184 262.986 293.078 263.631 291.63ZM257.631 253.658C260.16 251.749 263.152 255.748 260.54 257.608C259.697 255.863 196.756 310.377 204.078 292.832L257.631 253.674V253.658ZM190.641 284.322C192.244 283.301 204.64 231.322 209.07 234.976C214.822 234.384 194.575 284.273 195.318 285.82C194.36 288.848 189.616 287.334 190.624 284.322H190.641ZM173.286 236.523C178.211 233.314 177.831 283.433 178.972 284.355C179.071 285.705 178.029 286.873 176.691 286.972C175.352 287.054 174.145 286.05 174.063 284.684C175.054 283.45 167.997 234.186 173.269 236.523H173.286ZM181.682 292.618C215.5 292.371 212.409 345.617 178.839 341.502C180.195 341.535 181.252 342.671 181.219 344.037C180.129 344.728 181.583 391.325 175.187 377.746C173.087 372.496 173.881 339.807 178.773 341.502C148.923 338.655 151.451 292.009 181.682 292.618ZM117.072 252.374C114.775 250.201 118.262 246.597 120.51 248.868C119.898 250.975 172.79 293.325 160.906 294.181C158.311 294.56 118.973 253.213 117.072 252.374ZM152.823 327.89C160.559 331.1 147.699 335.511 143.633 341.009C141.336 343.181 137.915 339.593 140.262 337.437C150.46 327.89 151.881 327.89 152.823 327.89ZM73.9985 321.767C75.8828 322.92 152.774 313.505 151.352 319.052C153.551 324.368 75.8001 325.24 74.3291 326.656C71.1556 326.886 70.792 321.948 73.9985 321.767Z" fill="url(#paint4_radial_1_32)"/>
<path d="M212.772 120.27C188.178 75.4176 236.111 53.263 206.921 0C210.475 25.8744 191.318 46.5311 184.608 68.8831C177.434 87.7787 197.087 117.274 212.789 120.27H212.772Z" fill="#CCA283"/>
<path d="M228.938 458.019C228.938 458.019 228.772 457.954 228.689 457.904C228.772 457.987 228.822 458.118 228.938 458.019Z" fill="#CCA283"/>
</g>
<defs>
<radialGradient id="paint0_radial_1_32" cx="0" cy="0" r="1" gradientUnits="userSpaceOnUse" gradientTransform="translate(298.213 463.808) rotate(-132.95) scale(116.611 187.802)">
<stop offset="0.16" stop-color="#CCA181" stop-opacity="0.2"/>
<stop offset="0.26" stop-color="#CCA181" stop-opacity="0.24"/>
<stop offset="0.41" stop-color="#CCA181" stop-opacity="0.35"/>
<stop offset="0.6" stop-color="#CCA181" stop-opacity="0.52"/>
<stop offset="0.81" stop-color="#CCA182" stop-opacity="0.76"/>
<stop offset="1" stop-color="#CCA283"/>
</radialGradient>
<radialGradient id="paint1_radial_1_32" cx="0" cy="0" r="1" gradientUnits="userSpaceOnUse" gradientTransform="translate(106.749 482.539) rotate(-104.869) scale(107.181 223.749)">
<stop offset="0.45" stop-color="#CCA181" stop-opacity="0.3"/>
<stop offset="0.52" stop-color="#CCA181" stop-opacity="0.33"/>
<stop offset="0.62" stop-color="#CCA181" stop-opacity="0.41"/>
<stop offset="0.73" stop-color="#CCA181" stop-opacity="0.54"/>
<stop offset="0.85" stop-color="#CCA182" stop-opacity="0.73"/>
<stop offset="0.98" stop-color="#CCA182" stop-opacity="0.97"/>
<stop offset="1" stop-color="#CCA283"/>
</radialGradient>
<radialGradient id="paint2_radial_1_32" cx="0" cy="0" r="1" gradientUnits="userSpaceOnUse" gradientTransform="translate(252.822 593.256) rotate(-31.8124) scale(130.457 85.942)">
<stop offset="0.26" stop-color="#9F7960"/>
<stop offset="0.45" stop-color="#AE866B"/>
<stop offset="0.78" stop-color="#C49A7C"/>
<stop offset="1" stop-color="#CCA283"/>
</radialGradient>
<radialGradient id="paint3_radial_1_32" cx="0" cy="0" r="1" gradientUnits="userSpaceOnUse" gradientTransform="translate(162.614 604.125) rotate(-106.606) scale(140.316 328.084)">
<stop stop-color="#A07A60"/>
<stop offset="0.6" stop-color="#BF9678"/>
<stop offset="0.95" stop-color="#CCA283"/>
</radialGradient>
<radialGradient id="paint4_radial_1_32" cx="0" cy="0" r="1" gradientUnits="userSpaceOnUse" gradientTransform="translate(196.063 420.486) rotate(89.3171) scale(282.775 573.601)">
<stop offset="0.23" stop-color="#CCA181" stop-opacity="0.3"/>
<stop offset="0.31" stop-color="#CCA181" stop-opacity="0.35"/>
<stop offset="0.46" stop-color="#CCA181" stop-opacity="0.49"/>
<stop offset="0.65" stop-color="#CCA181" stop-opacity="0.72"/>
<stop offset="0.85" stop-color="#CCA181"/>
</radialGradient>
<clipPath id="clip0_1_32">
<rect width="403" height="641" fill="white"/>
</clipPath>
</defs>
</svg>
