<svg width="218" height="61" viewBox="0 0 218 61" fill="none" xmlns="http://www.w3.org/2000/svg">
<path d="M3.13969 52.1369H0V17.2647L9.41908 11.2H23.5477V14.2323H9.41908L3.13969 18.7809V27.878H17.2683V30.9103H3.13969V52.1369Z" fill="#040404"/>
<path d="M26.6874 52.1369V11.2H29.8271V52.1369H26.6874Z" fill="#040404"/>
<path d="M37.6763 52.1369H34.5366V11.2H37.6763L51.8049 27.878L65.9335 11.2H69.0732V52.1369H65.9335V17.2647L53.3748 30.9103V32.4265H50.235V30.9103L37.6763 17.2647V52.1369Z" fill="#040404"/>
<path d="M72.2129 44.556V11.2H75.3526V43.0398L83.2018 49.1045H89.4812L97.3304 43.0398V11.2H100.47V44.556L91.051 52.1369H81.632L72.2129 44.556Z" fill="#040404"/>
<path fill-rule="evenodd" clip-rule="evenodd" d="M103.61 52.1369H106.749V32.4265H111.459L130.297 52.1369H131.867V49.1045L116.169 32.4265H120.878L131.867 24.8456V18.7809L122.448 11.2H103.61V52.1369ZM106.749 29.3941V14.2323H120.878L128.727 20.2971V23.3294L120.878 29.3941H106.749Z" fill="#040404"/>
<path d="M158.554 11.2V14.2323H144.426L138.146 18.7809V29.3941H152.275V32.4265H138.146V44.556L144.426 49.1045H158.554V52.1369H142.856L135.007 46.0721V17.2647L144.426 11.2H158.554Z" fill="#040404"/>
<path d="M161.694 11.2H164.834L178.409 30.0669V34.7482L166.404 52.1369H161.694L175.823 33.9427V30.9103L161.694 11.2Z" fill="#040404"/>
<path d="M201.42 0L202.467 1.49414L192.553 7.97645L194.305 4.69817L201.42 0Z" fill="#F69018"/>
<path d="M203.894 3.29406L204.906 4.69817L188.015 16.0598L189.951 12.7162L203.894 3.29406Z" fill="#F69018"/>
<path d="M206.468 6.81614L207.508 8.2801L183.288 24.3274L185.242 20.2971L206.468 6.81614Z" fill="#F69018"/>
<path d="M208.47 10.1398L209.428 11.4887L191.241 23.6438L218 61H215.707L189.821 24.5929L187.267 26.2997L212.025 60.9845L209.954 61L185.857 27.2421L183.344 28.922L206.241 61H204.301L181.864 29.911L179.449 31.5246L200.481 60.9893L198.463 61L178.409 34.7482V30.0669L208.47 10.1398Z" fill="#F69018"/>
</svg>
